<?xml version="1.0" encoding="utf-8" ?><svg xmlns="http://www.w3.org/2000/svg" xmlns:xlink="http://www.w3.org/1999/xlink" width="1536" height="1024" viewBox="0 0 1536 1024"><path fill="#FE6B00" d="M228.924 382.812C229.578 382.761 230.234 382.714 230.889 382.67C246.135 381.671 250.176 387.488 260.917 397.081C266.871 402.399 272.913 407.91 278.844 413.266C294.259 427.164 309.783 440.942 325.413 454.597C324.912 464.558 325.177 474.994 325.246 485.019C325.305 493.572 324.73 504.089 325.408 512.456C307.797 497.505 290.742 481.518 273.412 466.224C267.974 461.425 262.434 456.419 257.348 451.269L257.53 487.807C257.554 504.265 259.674 577.367 255.009 587.509C252.496 592.971 247.119 596.225 241.64 598.148C235.279 600.381 228.999 600.063 222.899 597.097C218.183 594.804 212.912 590.209 211.333 585.031C208.001 574.105 209.922 517.693 209.904 502.608L209.903 441.224C209.896 428.943 209.752 416.707 210.161 404.431C210.571 392.094 217.826 386.289 228.924 382.812Z"/><path fill="#A2A2A3" d="M383.656 382.148C394.193 382.746 404.513 388.302 405.576 399.888C406.648 411.563 406.252 423.819 406.263 435.57L406.285 496.129L406.291 550.574C406.288 558.457 407.302 576.92 405.504 583.676C400.185 603.664 375.785 603.987 364.563 588.372C360.054 579.093 361.901 522.539 362.128 508.873C352.197 508.538 341.291 508.755 331.288 508.755C331.214 492.877 330.881 476.127 331.265 460.318C341.462 460.478 352.093 460.27 362.324 460.216C361.769 443.827 361.866 427.359 361.669 410.957C361.58 403.478 362.108 395.632 367.113 389.634C371.934 383.857 376.496 382.842 383.656 382.148Z"/><path fill="#1C1C1C" d="M817.337 446.953L838.503 446.884L838.538 480.509C844.705 475.222 848.728 472.153 857.102 471.045C866.188 469.788 875.4 472.185 882.721 477.711C899.781 490.803 900.26 515.317 887.4 531.647C876.799 542.55 859.606 546.72 846.086 538.678C844.101 537.497 840.18 533.775 838.428 533.583C838.526 536.044 838.821 537.789 837.944 540.071C834.353 540.636 821.636 540.292 817.31 540.256L817.337 446.953ZM860.076 523.973C866.24 522.54 871.145 517.879 872.889 511.794C874.634 505.709 872.945 499.156 868.477 494.673C864.01 490.19 857.464 488.48 851.375 490.207C842.267 492.789 836.883 502.169 839.245 511.339C841.608 520.508 850.855 526.116 860.076 523.973Z"/><path fill="#FE6B00" d="M473.691 447.716C481.052 447.67 488.414 447.699 495.775 447.804C499.862 452.55 506.463 462.209 510.328 467.494L537.537 504.762C537.688 485.787 537.697 466.811 537.564 447.835L558.368 447.686C558.01 457.542 558.506 538.222 557.549 540.082L555.187 540.366C549.028 540.448 543.456 540.452 537.302 540.221C532.575 534.881 524.174 522.717 519.44 516.254C510.978 504.704 501.123 492.159 493.322 480.406C493.914 499.703 493.489 520.97 493.498 540.415L473.659 540.313C473.409 509.434 474.015 478.583 473.691 447.716Z"/><path fill="#A2A2A3" d="M1007.73 456.069L1026.84 455.997L1026.95 540.198L1008.06 540.179L1008.1 512.802L1008.06 487.483C1001.07 498.226 994.326 509.057 987.635 519.99C985.255 523.879 983.726 526.947 978.911 527.059C974.023 524.743 956.404 494.357 951.941 487.21L951.958 540.213L933.179 540.239L933.071 456.049L953.873 456.118C962.598 470.892 972.291 485.489 980.721 500.347C988.984 485.406 998.613 470.526 1007.73 456.069Z"/><path fill="#1C1C1C" d="M711.964 446.772L734.171 446.878C733.97 457.695 734.716 538.327 733.489 540.174L730.687 540.256L712.05 540.351C712.125 527.617 712.076 514.881 711.903 502.148C699.321 502.312 686.736 502.3 674.154 502.11L674.253 540.226L651.915 540.184C652.086 510.889 652.858 475.878 651.809 446.971C659.105 446.808 666.911 446.94 674.252 446.928C674.073 458.419 674.213 470.297 674.208 481.817L712.075 481.861L711.964 446.772Z"/><path fill="#FE6B00" d="M596.987 470.598C607.654 469.02 619.998 470.573 629.05 476.796C636.876 482.147 642.253 490.391 643.997 499.712C645.699 509.171 643.612 518.921 638.186 526.854C632.091 535.684 623.238 540.323 612.907 542.303C600.813 543.55 589.54 542.587 579.227 535.265C563.491 524.093 560.817 499.819 572.093 484.605C578.205 476.358 586.904 472.143 596.987 470.598ZM609.416 523.825C619.199 521.043 624.835 510.814 621.963 501.056C619.09 491.297 608.812 485.756 599.083 488.72C589.482 491.645 584.03 501.761 586.865 511.392C589.699 521.022 599.762 526.57 609.416 523.825Z"/><path fill="#1C1C1C" d="M788.042 471.931L809.189 471.941L809.188 499.059L809.21 540.32C802.367 540.164 796.469 540.655 789.378 540.205C787.157 537.735 789.257 537.907 787.852 534.088C781.543 538.363 777.646 542.373 770.007 542.591C742.848 543.365 741.681 521.576 742.411 500.444C742.716 491.618 742.48 480.949 742.527 471.988L764.151 471.908C764.138 479.562 761.747 515.704 767.495 519.463C794.573 537.167 788.206 485.525 788.042 471.931Z"/><path fill="#A2A2A3" d="M1063.11 475.97C1106.85 476.078 1092.39 509.296 1095.36 539.447L1095.43 540.177C1091.95 540.171 1081.32 540.929 1078.89 539.95C1078.59 538.137 1078.43 536.778 1078.27 534.947C1072.47 534.425 1054.85 553.813 1036.87 533.823C1033.08 525.915 1032.09 515.167 1039.35 508.809C1049.65 499.796 1063.49 501.093 1076.17 501.725L1076.95 500.972C1075.73 491.931 1065.43 489.034 1057.74 491.063C1051.85 492.621 1049.82 493.946 1044.99 497.663C1041.53 493.185 1039.4 490.241 1036.35 485.416C1045.13 478.52 1052.21 476.383 1063.11 475.97ZM1070.13 527.012C1073.1 525.192 1076.86 522.228 1078.05 518.864C1076.99 511.259 1065.41 512.875 1059.75 513.158C1055.59 515.031 1051.98 517.024 1052.87 522.201C1056.65 529.116 1063.69 528.383 1070.13 527.012Z"/><path fill="#A2A2A3" d="M1151.93 447.888L1171.02 447.902C1170.27 463.58 1170.89 485.428 1170.94 501.463C1178.21 493.954 1185.64 485.13 1192.58 477.21L1215.51 476.99C1207.74 485.755 1196.26 498.217 1187.75 506.111C1193.11 511.718 1201.01 521.959 1206.17 528.227C1209.45 532.388 1213.18 536.338 1216.77 540.256L1193.58 540.229C1186.19 531.306 1178.62 521.399 1171.38 512.267C1170.82 521.671 1171 530.817 1171.25 540.223L1151.86 540.293L1151.93 447.888Z"/><path fill="#A2A2A3" d="M1238.78 475.855C1239.89 475.789 1241.01 475.753 1242.13 475.748C1267.01 475.652 1275.3 491.764 1274.98 514.206C1259.68 514.406 1244.38 514.507 1229.08 514.51C1235.62 533.249 1250.37 528.3 1263.51 521.42C1263.97 521.179 1266.5 523.961 1266.99 524.446C1267.96 525.658 1272.85 529.85 1274.3 531.131C1259.81 543.005 1241.05 548.057 1224.53 536.551C1217.23 531.466 1212.27 523.674 1210.75 514.911C1207.22 494.406 1218.26 478.886 1238.78 475.855ZM1228.97 503.145L1246.03 503.233L1257.61 503.199C1254.19 492.708 1251.53 489.229 1239.73 489.99C1233.6 493.019 1231.7 494.923 1229.45 501.645C1229.29 502.143 1229.12 502.644 1228.97 503.145Z"/><path fill="#A2A2A3" d="M1302.3 457.154L1303.56 457.471C1304.48 459.862 1304.02 473.593 1304.02 477.162L1320.03 477.054L1319.95 492.161L1304.16 492.13C1304.13 500.616 1302.39 517.751 1306.74 524.916C1309.63 529.668 1314.05 523.643 1318.88 524.261C1321.36 526.665 1322.49 533.674 1323.43 537.513C1320.75 538.775 1317.46 540.013 1314.66 541.142C1312.1 541.652 1309.5 541.961 1306.88 542.064C1279.28 543.366 1285.87 510.848 1286.13 491.996L1276.49 492.11L1276.54 477.084L1286.12 477.175C1285.6 471.816 1285.87 464.753 1285.91 459.25C1290.35 459.079 1297.69 457.811 1302.3 457.154Z"/><path fill="#A2A2A3" d="M1137.22 475.839L1145.24 475.492L1145.16 493.65C1143.61 493.461 1142.06 493.371 1140.5 493.381C1116.77 493.374 1122.87 523.482 1123.16 540.246L1104.14 540.213C1103.97 519.155 1103.91 498.097 1103.98 477.039L1122.79 477.015L1122.8 486.865C1127.37 479.964 1129.34 478.26 1137.22 475.839Z"/><path fill="#FE6B00" d="M906.574 523.767C912.202 523.456 917.517 523.899 920.508 529.628C921.446 531.445 921.611 533.563 920.967 535.503C919.725 539.299 916.806 540.691 913.559 542.305C900.405 543.162 892.858 531.243 906.574 523.767Z"/></svg>